<svg xmlns="http://www.w3.org/2000/svg" data-name="Layer 1" viewBox="0 0 512 512" id="advocate"><path fill="#343c4a" d="M381.721 277.165 256 327.499l-125.721-50.334a7.418 7.418 0 0 1-.961-13.306 56.962 56.962 0 0 0 28.185-54.354l-5.265-58.994v-43.25A103.762 103.762 0 0 1 256 3.5a103.762 103.762 0 0 1 103.762 103.762v43.25l-5.265 58.994a56.962 56.962 0 0 0 28.185 54.354 7.418 7.418 0 0 1-.96 13.306Z"></path><path fill="#343c4a" d="M447.56 501.999v-125.07a60 60 0 0 0-33.656-53.908l-102.824-50.25a20 20 0 0 1-11.219-17.968v-34.039H212.14v34.039a20 20 0 0 1-11.219 17.969l-102.824 50.25a60 60 0 0 0-33.656 53.907v125.07a10 10 0 0 0 10 10h363.12a10 10 0 0 0 10-10Z"></path><path fill="#f9beac" d="M311.08 272.772a20 20 0 0 1-11.219-17.97v-34.038H212.14v34.039a20 20 0 0 1-11.219 17.969c-.285 4.3-.831 20.299 10.373 34.548 16.216 20.622 42.455 19.022 44.707 18.846a57.138 57.138 0 0 0 34.219-12.367c18.865-15.219 20.624-37.28 20.86-41.027Z"></path><path fill="#f9f7f8" d="m331.188 432.585-25.861 12.518a6 6 0 0 1-8.203-3.218L252.445 327.46 256 324.81l26.516-8.294 51.475 108.09a6 6 0 0 1-2.803 7.98Z"></path><path fill="#f9f7f8" d="m180.812 432.585 25.861 12.518a6 6 0 0 0 8.203-3.218l44.679-114.425L256 324.81l-26.516-8.294-51.475 108.09a6 6 0 0 0 2.803 7.98Z"></path><path fill="#eaeaea" d="M310.4 266.791a4.997 4.997 0 0 0-8.062 3.647 59.263 59.263 0 0 1-8.363 27.122C281.331 318.466 260.1 323.853 256 324.809l62.805 25.57a7 7 0 0 0 7.202-1.174l.02-.018a46.244 46.244 0 0 0-1.714-71.556zm-108.8 0a4.997 4.997 0 0 1 8.062 3.647 59.263 59.263 0 0 0 8.363 27.122c12.644 20.906 33.876 26.293 37.975 27.249l-62.805 25.57a7 7 0 0 1-7.202-1.174l-.02-.018a46.244 46.244 0 0 1 1.714-71.556z"></path><path fill="#e58a7b" d="M299.861 254.803v-34.039H212.14v34.039a19.972 19.972 0 0 1-.353 3.68A80.04 80.04 0 0 0 263 276.916a79.97 79.97 0 0 0 40.337-10.866 19.975 19.975 0 0 1-3.476-11.246Z"></path><path fill="#f9beac" d="M175.628 175.543V112.61a7.007 7.007 0 0 1 7.135-6.998 199.072 199.072 0 0 0 60.513-8.41 198.847 198.847 0 0 0 48.613-22.145 5.985 5.985 0 0 1 8.074 1.638 81.385 81.385 0 0 0 32.344 26.926 6.996 6.996 0 0 1 4.065 6.353v65.569A80.372 80.372 0 0 1 256 255.915a80.372 80.372 0 0 1-80.372-80.372Z"></path><path fill="#e58a7b" d="M256.002 227.625a36.925 36.925 0 0 1-15.72-3.537 3.5 3.5 0 1 1 2.997-6.325 29.887 29.887 0 0 0 12.722 2.862h.09a29.89 29.89 0 0 0 12.63-2.863 3.5 3.5 0 0 1 2.998 6.326 36.952 36.952 0 0 1-15.607 3.537zm12.702-46.365v7.322a12.701 12.701 0 0 1-12.7 12.7h-.007a12.701 12.701 0 0 1-12.701-12.7v-7.322a3 3 0 0 1 3-3h19.408a3 3 0 0 1 3 3zm67.668-9.84v-41.049h16.39a7 7 0 0 1 7 7v10.66a23.39 23.39 0 0 1-23.39 23.39zM175.628 171.421a23.39 23.39 0 0 1-23.39-23.39v-10.66a7 7 0 0 1 7-7h16.39v41.05Z"></path><path fill="#343c4a" d="M302.546 140.46a3.496 3.496 0 0 1-1.326-.262 27.478 27.478 0 0 0-11.044-2.038 27.144 27.144 0 0 0-9.661 2.037 3.5 3.5 0 1 1-2.659-6.476 34.208 34.208 0 0 1 26.018 0 3.5 3.5 0 0 1-1.328 6.739zm-11.68 17.707a3.5 3.5 0 0 1-3.5-3.5v-7.433a3.5 3.5 0 1 1 7 0v7.433a3.5 3.5 0 0 1-3.5 3.5zm-58.053-17.707a3.496 3.496 0 0 1-1.326-.262 27.464 27.464 0 0 0-11.043-2.038 27.149 27.149 0 0 0-9.662 2.037 3.5 3.5 0 1 1-2.658-6.476 34.208 34.208 0 0 1 26.018 0 3.5 3.5 0 0 1-1.329 6.739zm-11.68 17.707a3.5 3.5 0 0 1-3.5-3.5v-7.433a3.5 3.5 0 0 1 7 0v7.433a3.5 3.5 0 0 1-3.5 3.5z"></path><path fill="#d34342" d="M256 131.173a3.5 3.5 0 0 1-3.5-3.5v-7.433a3.5 3.5 0 0 1 7 0v7.433a3.5 3.5 0 0 1-3.5 3.5Z"></path><path fill="#243047" d="M389.734 512a3.502 3.502 0 0 1-3.307-4.646 97.275 97.275 0 0 0 .647-61.369l-2.27-7.03a63.826 63.826 0 0 1-3.09-19.606v-18.15a3.5 3.5 0 0 1 7 0v18.15a56.844 56.844 0 0 0 2.752 17.457l2.27 7.028a104.328 104.328 0 0 1-.694 65.81 3.503 3.503 0 0 1-3.308 2.356zm-267.46 0a3.502 3.502 0 0 1-3.306-2.354 104.238 104.238 0 0 1-.703-65.813l2.268-7.03a56.822 56.822 0 0 0 2.751-17.454v-18.15a3.5 3.5 0 1 1 7 0v18.15a63.804 63.804 0 0 1-3.089 19.603l-2.27 7.032a97.206 97.206 0 0 0 .656 61.369 3.503 3.503 0 0 1-3.307 4.647z"></path></svg>