<svg xmlns="http://www.w3.org/2000/svg" data-name="Layer 1" viewBox="0 0 512 512" id="army-general"><path fill="#01998d" d="M50.44 502V369.06a60 60 0 0 1 39.49-56.386l101.209-36.815H320.86l101.209 36.815a60 60 0 0 1 39.49 56.386V502a10 10 0 0 1-10 10H60.44a10 10 0 0 1-10-10Z"></path><path fill="#f9beac" d="M306.861 311.084v-81.945H205.139v81.945l51.272 30.517 50.45-30.517z"></path><path fill="#006e66" d="M128.121 512a3.5 3.5 0 0 1-3.5-3.5v-73.174a3.5 3.5 0 1 1 7 0V508.5a3.5 3.5 0 0 1-3.5 3.5zm255.758 0a3.5 3.5 0 0 1-3.5-3.5v-73.174a3.5 3.5 0 1 1 7 0V508.5a3.5 3.5 0 0 1-3.5 3.5z"></path><rect width="73" height="16" x="311.5" y="398.5" fill="#f96263" rx="2"></rect><rect width="73" height="16" x="128.121" y="398.5" fill="#fff" rx="2"></rect><path fill="#416bd0" d="M384.5 412.5v-12a2 2 0 0 0-2-2h-19v16h19a2 2 0 0 0 2-2Z"></path><path fill="#ffbc5b" d="M313.5 398.5a2 2 0 0 0-2 2v12a2 2 0 0 0 2 2h22v-16Z"></path><path fill="#006e66" d="m420.86 312.234-59.296-21.57-4.996 14.56a6 6 0 0 0 3.727 7.622l48.322 16.582a6 6 0 0 0 7.622-3.728zm-317.477 17.194 48.322-16.582a6 6 0 0 0 3.727-7.622l-4.996-14.56-59.296 21.57 4.62 13.466a6 6 0 0 0 7.623 3.728zm148.734 15.381-46.936-22.869a11.922 11.922 0 0 0-13.071 1.738l-4.385 3.832a5 5 0 0 1-8.236-4.503l6.345-45.221 19.296-15.664 50.861 75.663z"></path><path fill="#006e66" d="M266.51 342.491V512h-21V360.039a22.33 22.33 0 0 1 1.3-7.53l60.01-30.57a11.916 11.916 0 0 1 13.07 1.74l4.39 3.83a4.996 4.996 0 0 0 8.23-4.5q-3.165-22.62-6.34-45.22l-19.3-15.67c-13.92 20.72-46.37 68.83-57.52 85.35a22.703 22.703 0 0 0-2.54 5.04"></path><ellipse cx="256" cy="66" fill="#01998d" rx="118" ry="62.5"></ellipse><path fill="#e58a7b" d="M329.783 174.518v-41.05h5.73a17.66 17.66 0 0 1 17.66 17.66 23.39 23.39 0 0 1-23.39 23.39ZM183.04 174.518a23.39 23.39 0 0 1-23.39-23.39 17.66 17.66 0 0 1 17.66-17.66h5.73v41.05ZM205.139 249.209a67.312 67.312 0 0 0 12.928 12.184l9.207 6.62a61.905 61.905 0 0 0 36.137 11.643 61.902 61.902 0 0 0 36.137-11.643l7.313-5.258v-33.616H205.14Z"></path><path fill="#f9beac" d="M329.783 173.312v12.408a67.338 67.338 0 0 1-28.028 54.673l-9.207 6.62a61.903 61.903 0 0 1-36.137 11.643 61.903 61.903 0 0 1-36.137-11.643l-9.207-6.62a67.338 67.338 0 0 1-28.028-54.673v-83.516l146.744-4.436Z"></path><path fill="#343c4a" d="M329.783 165h-4a10 10 0 0 1-10-10v-45h14zm-146.744 0h4a10 10 0 0 0 10-10v-52h-14z"></path><path fill="#e58a7b" d="M256.412 222.021a36.911 36.911 0 0 1-15.72-3.537 3.5 3.5 0 0 1 2.998-6.325 29.88 29.88 0 0 0 12.722 2.862h.09a29.89 29.89 0 0 0 12.63-2.862 3.5 3.5 0 1 1 2.998 6.325 36.93 36.93 0 0 1-15.607 3.537Z"></path><path fill="#343c4a" d="M279.598 138.795a3.5 3.5 0 0 1-1.33-6.738 34.208 34.208 0 0 1 26.017-.001 3.5 3.5 0 0 1-2.654 6.477 27.51 27.51 0 0 0-11.044-2.038 27.16 27.16 0 0 0-9.661 2.037 3.485 3.485 0 0 1-1.328.263zm11.68 17.707a3.5 3.5 0 0 1-3.5-3.5v-7.433a3.5 3.5 0 0 1 7 0v7.433a3.5 3.5 0 0 1-3.5 3.5zm-81.413-17.707a3.5 3.5 0 0 1-1.33-6.738 34.208 34.208 0 0 1 26.018-.001 3.5 3.5 0 0 1-2.655 6.477 27.21 27.21 0 0 0-20.705 0 3.485 3.485 0 0 1-1.328.262zm11.68 17.707a3.5 3.5 0 0 1-3.5-3.5v-7.433a3.5 3.5 0 0 1 7 0v7.433a3.5 3.5 0 0 1-3.5 3.5z"></path><path fill="#f96263" d="M169.876 101c0-34.518 38.56-62.5 86.124-62.5s86.124 27.982 86.124 62.5Z"></path><path fill="#006e66" d="M166.89 101.69a12.106 12.106 0 0 0 14.893 15.642 252.124 252.124 0 0 1 150.267 1.528 12.106 12.106 0 0 0 14.82-16.321l-7.872-18.283a185.853 185.853 0 0 0-165.463-1.333l-6.645 18.768Z"></path><circle cx="256" cy="51.323" r="24.816" fill="#fff"></circle><path fill="#343c4a" d="M227.677 188.748a3.58 3.58 0 0 1 3.016-3.543 163.72 163.72 0 0 1 51.439 0 3.58 3.58 0 0 1 3.013 3.542v10.71a3.59 3.59 0 0 1-4.11 3.545 175.066 175.066 0 0 0-49.252 0 3.588 3.588 0 0 1-4.106-3.545Z"></path><path fill="#e58a7b" d="M269.115 170.919v5.06a12.701 12.701 0 0 1-12.7 12.7h-.007a12.701 12.701 0 0 1-12.701-12.7v-5.06a3 3 0 0 1 3-3h19.408a3 3 0 0 1 3 3Z"></path></svg>