<svg width="173" height="23" viewBox="0 0 173 23" fill="none" xmlns="http://www.w3.org/2000/svg">
<path d="M0.632 22V2.4H4.272V22H0.632ZM16.0974 22.196C11.3654 22.196 8.00541 19.004 8.00541 14.524C8.00541 10.044 11.3654 6.88 16.0974 6.88C19.0094 6.88 21.3334 8.084 22.4814 10.352L19.7934 11.92C18.8974 10.492 17.5534 9.848 16.0694 9.848C13.4934 9.848 11.5334 11.64 11.5334 14.524C11.5334 17.436 13.4934 19.2 16.0694 19.2C17.5534 19.2 18.8974 18.556 19.7934 17.128L22.4814 18.696C21.3334 20.936 19.0094 22.196 16.0974 22.196ZM32.0082 22.196C27.4162 22.196 24.0562 19.004 24.0562 14.524C24.0562 10.044 27.4162 6.88 32.0082 6.88C36.6562 6.88 39.9882 10.044 39.9882 14.524C39.9882 19.004 36.6562 22.196 32.0082 22.196ZM32.0082 19.2C34.5562 19.2 36.4602 17.38 36.4602 14.524C36.4602 11.668 34.5562 9.848 32.0082 9.848C29.4882 9.848 27.5842 11.668 27.5842 14.524C27.5842 17.38 29.4882 19.2 32.0082 19.2ZM51.8191 6.88C55.4031 6.88 58.0631 8.924 58.0631 13.432V22H54.5631V13.88C54.5631 11.22 53.2471 9.932 51.0071 9.932C48.5151 9.932 46.8351 11.444 46.8351 14.44V22H43.3351V7.048H46.6671V8.98C47.8151 7.608 49.6351 6.88 51.8191 6.88ZM64.267 4.584C62.979 4.584 62.027 3.66 62.027 2.484C62.027 1.308 62.979 0.384 64.267 0.384C65.555 0.384 66.507 1.252 66.507 2.4C66.507 3.632 65.583 4.584 64.267 4.584ZM62.503 22V7.048H66.003V22H62.503ZM77.4568 22.196C72.7248 22.196 69.3648 19.004 69.3648 14.524C69.3648 10.044 72.7248 6.88 77.4568 6.88C80.3688 6.88 82.6928 8.084 83.8408 10.352L81.1528 11.92C80.2568 10.492 78.9128 9.848 77.4288 9.848C74.8528 9.848 72.8928 11.64 72.8928 14.524C72.8928 17.436 74.8528 19.2 77.4288 19.2C78.9128 19.2 80.2568 18.556 81.1528 17.128L83.8408 18.696C82.6928 20.936 80.3688 22.196 77.4568 22.196ZM109.613 22L107.653 17.464H97.8526L95.9206 22H92.1686L100.989 2.4H104.573L113.421 22H109.613ZM99.0846 14.608H106.449L102.753 6.04L99.0846 14.608ZM123.449 18.696L124.429 21.188C123.589 21.86 122.329 22.196 121.069 22.196C117.793 22.196 115.917 20.46 115.917 17.156V9.96H113.453V7.16H115.917V3.744H119.417V7.16H123.421V9.96H119.417V17.072C119.417 18.528 120.145 19.312 121.489 19.312C122.217 19.312 122.917 19.116 123.449 18.696ZM134.96 18.696L135.94 21.188C135.1 21.86 133.84 22.196 132.58 22.196C129.304 22.196 127.428 20.46 127.428 17.156V9.96H124.964V7.16H127.428V3.744H130.928V7.16H134.932V9.96H130.928V17.072C130.928 18.528 131.656 19.312 133 19.312C133.728 19.312 134.428 19.116 134.96 18.696ZM140.583 4.584C139.295 4.584 138.343 3.66 138.343 2.484C138.343 1.308 139.295 0.384 140.583 0.384C141.871 0.384 142.823 1.252 142.823 2.4C142.823 3.632 141.899 4.584 140.583 4.584ZM138.819 22V7.048H142.319V22H138.819ZM150.245 9.232C151.253 7.664 153.073 6.88 155.565 6.88V10.212C155.257 10.156 155.005 10.128 154.753 10.128C152.093 10.128 150.413 11.696 150.413 14.748V22H146.913V7.048H150.245V9.232ZM172.454 14.608C172.454 14.888 172.426 15.308 172.398 15.644H160.666C161.086 17.828 162.906 19.228 165.51 19.228C167.19 19.228 168.506 18.696 169.57 17.604L171.446 19.76C170.102 21.356 168.002 22.196 165.426 22.196C160.414 22.196 157.166 18.976 157.166 14.524C157.166 10.072 160.442 6.88 164.894 6.88C169.262 6.88 172.454 9.932 172.454 14.608ZM164.894 9.68C162.626 9.68 160.974 11.136 160.638 13.32H169.122C168.842 11.164 167.19 9.68 164.894 9.68Z" fill="#FBE5B9"/>
</svg>
