<svg width="173" height="23" viewBox="0 0 173 23" fill="none" xmlns="http://www.w3.org/2000/svg">
<path d="M0.632 22V2.4H4.272V22H0.632ZM16.0974 22.196C14.5294 22.196 13.1294 21.8693 11.8974 21.216C10.6841 20.544 9.73207 19.6293 9.04141 18.472C8.35074 17.3147 8.00541 15.9987 8.00541 14.524C8.00541 13.0307 8.35074 11.7147 9.04141 10.576C9.73207 9.41867 10.6841 8.51333 11.8974 7.86C13.1294 7.20667 14.5294 6.88 16.0974 6.88C17.5534 6.88 18.8321 7.17867 19.9334 7.776C21.0534 8.35467 21.9027 9.21333 22.4814 10.352L19.7934 11.92C19.3454 11.2107 18.7947 10.688 18.1414 10.352C17.5067 10.016 16.8161 9.848 16.0694 9.848C15.2107 9.848 14.4361 10.0347 13.7454 10.408C13.0547 10.7813 12.5134 11.3227 12.1214 12.032C11.7294 12.7227 11.5334 13.5533 11.5334 14.524C11.5334 15.4947 11.7294 16.3347 12.1214 17.044C12.5134 17.7347 13.0547 18.2667 13.7454 18.64C14.4361 19.0133 15.2107 19.2 16.0694 19.2C16.8161 19.2 17.5067 19.032 18.1414 18.696C18.7947 18.36 19.3454 17.8373 19.7934 17.128L22.4814 18.696C21.9027 19.816 21.0534 20.684 19.9334 21.3C18.8321 21.8973 17.5534 22.196 16.0974 22.196ZM32.0082 22.196C30.4775 22.196 29.1149 21.8693 27.9202 21.216C26.7255 20.544 25.7829 19.6293 25.0922 18.472C24.4015 17.3147 24.0562 15.9987 24.0562 14.524C24.0562 13.0307 24.4015 11.7147 25.0922 10.576C25.7829 9.41867 26.7255 8.51333 27.9202 7.86C29.1149 7.20667 30.4775 6.88 32.0082 6.88C33.5575 6.88 34.9295 7.20667 36.1242 7.86C37.3375 8.51333 38.2802 9.40933 38.9522 10.548C39.6429 11.6867 39.9882 13.012 39.9882 14.524C39.9882 15.9987 39.6429 17.3147 38.9522 18.472C38.2802 19.6293 37.3375 20.544 36.1242 21.216C34.9295 21.8693 33.5575 22.196 32.0082 22.196ZM32.0082 19.2C32.8669 19.2 33.6322 19.0133 34.3042 18.64C34.9762 18.2667 35.4989 17.7253 35.8722 17.016C36.2642 16.3067 36.4602 15.476 36.4602 14.524C36.4602 13.5533 36.2642 12.7227 35.8722 12.032C35.4989 11.3227 34.9762 10.7813 34.3042 10.408C33.6322 10.0347 32.8762 9.848 32.0362 9.848C31.1775 9.848 30.4122 10.0347 29.7402 10.408C29.0869 10.7813 28.5642 11.3227 28.1722 12.032C27.7802 12.7227 27.5842 13.5533 27.5842 14.524C27.5842 15.476 27.7802 16.3067 28.1722 17.016C28.5642 17.7253 29.0869 18.2667 29.7402 18.64C30.4122 19.0133 31.1682 19.2 32.0082 19.2ZM51.8191 6.88C53.0137 6.88 54.0777 7.11333 55.0111 7.58C55.9631 8.04667 56.7097 8.76533 57.2511 9.736C57.7924 10.688 58.0631 11.92 58.0631 13.432V22H54.5631V13.88C54.5631 12.5547 54.2457 11.5653 53.6111 10.912C52.9951 10.2587 52.1271 9.932 51.0071 9.932C50.1857 9.932 49.4577 10.1 48.8231 10.436C48.1884 10.772 47.6937 11.276 47.3391 11.948C47.0031 12.6013 46.8351 13.432 46.8351 14.44V22H43.3351V7.048H46.6671V11.08L46.0791 9.848C46.6017 8.896 47.3577 8.168 48.3471 7.664C49.3551 7.14133 50.5124 6.88 51.8191 6.88ZM62.503 22V7.048H66.003V22H62.503ZM64.267 4.584C63.6137 4.584 63.0724 4.37867 62.643 3.968C62.2324 3.55733 62.027 3.06267 62.027 2.484C62.027 1.88667 62.2324 1.392 62.643 0.999998C63.0724 0.589333 63.6137 0.384 64.267 0.384C64.9204 0.384 65.4524 0.579999 65.863 0.971999C66.2924 1.34533 66.507 1.82133 66.507 2.4C66.507 3.016 66.3017 3.53867 65.891 3.968C65.4804 4.37867 64.939 4.584 64.267 4.584ZM77.4568 22.196C75.8888 22.196 74.4888 21.8693 73.2568 21.216C72.0434 20.544 71.0914 19.6293 70.4008 18.472C69.7101 17.3147 69.3648 15.9987 69.3648 14.524C69.3648 13.0307 69.7101 11.7147 70.4008 10.576C71.0914 9.41867 72.0434 8.51333 73.2568 7.86C74.4888 7.20667 75.8888 6.88 77.4568 6.88C78.9128 6.88 80.1914 7.17867 81.2928 7.776C82.4128 8.35467 83.2621 9.21333 83.8408 10.352L81.1528 11.92C80.7048 11.2107 80.1541 10.688 79.5008 10.352C78.8661 10.016 78.1754 9.848 77.4288 9.848C76.5701 9.848 75.7954 10.0347 75.1048 10.408C74.4141 10.7813 73.8728 11.3227 73.4808 12.032C73.0888 12.7227 72.8928 13.5533 72.8928 14.524C72.8928 15.4947 73.0888 16.3347 73.4808 17.044C73.8728 17.7347 74.4141 18.2667 75.1048 18.64C75.7954 19.0133 76.5701 19.2 77.4288 19.2C78.1754 19.2 78.8661 19.032 79.5008 18.696C80.1541 18.36 80.7048 17.8373 81.1528 17.128L83.8408 18.696C83.2621 19.816 82.4128 20.684 81.2928 21.3C80.1914 21.8973 78.9128 22.196 77.4568 22.196ZM92.1686 22L100.989 2.4H104.573L113.421 22H109.613L102.025 4.332H103.481L95.9206 22H92.1686ZM96.2286 17.464L97.2086 14.608H107.793L108.773 17.464H96.2286ZM121.069 22.196C119.426 22.196 118.157 21.776 117.261 20.936C116.365 20.0773 115.917 18.8173 115.917 17.156V3.744H119.417V17.072C119.417 17.7813 119.594 18.332 119.949 18.724C120.322 19.116 120.835 19.312 121.489 19.312C122.273 19.312 122.926 19.1067 123.449 18.696L124.429 21.188C124.018 21.524 123.514 21.776 122.917 21.944C122.319 22.112 121.703 22.196 121.069 22.196ZM113.453 9.96V7.16H123.421V9.96H113.453ZM132.58 22.196C130.938 22.196 129.668 21.776 128.772 20.936C127.876 20.0773 127.428 18.8173 127.428 17.156V3.744H130.928V17.072C130.928 17.7813 131.106 18.332 131.46 18.724C131.834 19.116 132.347 19.312 133 19.312C133.784 19.312 134.438 19.1067 134.96 18.696L135.94 21.188C135.53 21.524 135.026 21.776 134.428 21.944C133.831 22.112 133.215 22.196 132.58 22.196ZM124.964 9.96V7.16H134.932V9.96H124.964ZM138.819 22V7.048H142.319V22H138.819ZM140.583 4.584C139.93 4.584 139.389 4.37867 138.959 3.968C138.549 3.55733 138.343 3.06267 138.343 2.484C138.343 1.88667 138.549 1.392 138.959 0.999998C139.389 0.589333 139.93 0.384 140.583 0.384C141.237 0.384 141.769 0.579999 142.179 0.971999C142.609 1.34533 142.823 1.82133 142.823 2.4C142.823 3.016 142.618 3.53867 142.207 3.968C141.797 4.37867 141.255 4.584 140.583 4.584ZM146.913 22V7.048H150.245V11.164L149.853 9.96C150.301 8.952 151.001 8.18667 151.953 7.664C152.924 7.14133 154.128 6.88 155.565 6.88V10.212C155.416 10.1747 155.276 10.156 155.145 10.156C155.015 10.1373 154.884 10.128 154.753 10.128C153.428 10.128 152.373 10.52 151.589 11.304C150.805 12.0693 150.413 13.2173 150.413 14.748V22H146.913ZM165.426 22.196C163.764 22.196 162.308 21.8693 161.058 21.216C159.826 20.544 158.864 19.6293 158.174 18.472C157.502 17.3147 157.166 15.9987 157.166 14.524C157.166 13.0307 157.492 11.7147 158.146 10.576C158.818 9.41867 159.732 8.51333 160.89 7.86C162.066 7.20667 163.4 6.88 164.894 6.88C166.35 6.88 167.647 7.19733 168.786 7.832C169.924 8.46667 170.82 9.36267 171.474 10.52C172.127 11.6773 172.454 13.04 172.454 14.608C172.454 14.7573 172.444 14.9253 172.426 15.112C172.426 15.2987 172.416 15.476 172.398 15.644H159.938V13.32H170.55L169.178 14.048C169.196 13.1893 169.019 12.4333 168.646 11.78C168.272 11.1267 167.759 10.6133 167.106 10.24C166.471 9.86667 165.734 9.68 164.894 9.68C164.035 9.68 163.279 9.86667 162.626 10.24C161.991 10.6133 161.487 11.136 161.114 11.808C160.759 12.4613 160.582 13.236 160.582 14.132V14.692C160.582 15.588 160.787 16.3813 161.198 17.072C161.608 17.7627 162.187 18.2947 162.934 18.668C163.68 19.0413 164.539 19.228 165.51 19.228C166.35 19.228 167.106 19.0973 167.778 18.836C168.45 18.5747 169.047 18.164 169.57 17.604L171.446 19.76C170.774 20.544 169.924 21.1507 168.898 21.58C167.89 21.9907 166.732 22.196 165.426 22.196Z" fill="black"/>
</svg>
